Patient4_TMGait_0pt3_01_right_13_EMG.mot
version=1
nRows=33
nColumns=33
inDegrees=no
endheader
time	1LAddLong	2LGlutMax	3LGlutMed	4LIliopsoas	5LSemiMemb	6LBicFemLong	7LRecFem	8LVastMed	9LVastLat	10LGasMed	11LTibAnt	12lTibPost	13LPeroneusLong	14LSol	15LExtDigLong	16LFlexDigLong	17RAddLong	18RGlutMax	19RGlutMed	20RIliopsoas	21RSemiMemb	22RBicFemLong	23RRecFem	24RVastMed	25RVastLat	26RGasMed	27RTibAnt	28RTibPost	29RPeroneusLong	30RSol	31RExtDigLong	32RFlexDigLong
25.135	0.015106	-0.000763	-0.006409	0.002594	0.012512	0.17227	-0.020905	0.000916	0.22049	-0.023499	-0.034027	0.018463	0.30716	0.056152	-0.12848	-0.01297	0.027466	-0.10605	0.15045	-0.032349	-0.055389	-0.056305	0.040894	-0.062408	-0.02533	-0.011902	-0.12741	-0.00473	-0.071869	-0.016632	-0.000305	-0.016022
25.136	0.006256	-0.029907	0.045776	0.040741	-0.003052	0.23804	0.10132	0.000916	0.11917	0.046692	0.016327	-0.001678	-0.092163	0.007019	0.056763	-0.038605	0.036163	-0.11963	0.42709	-0.057526	-0.036926	-0.053711	-0.002136	-0.064087	-0.016632	-0.010529	0.052032	-0.005188	-0.062408	-0.02121	-0.006866	-0.020905
25.137	0.004578	0.047455	0.12543	0.008087	0.000153	0.12024	0.13931	-0.009918	-0.048676	0.072479	0.10162	0.003357	-0.25269	-0.093689	-0.015869	-0.022125	0.042267	-0.1059	0.091858	-0.015259	-0.072021	-0.059204	0.026855	-0.093231	-0.014801	-0.00885	-0.046692	-0.003662	0.034943	-0.028687	-0.006714	-0.012665
25.138	-0.006866	0.088501	0.15595	-0.015564	0.000153	0.061798	0.18097	-0.007782	-0.17639	0.054016	0.14175	-0.003357	0.14618	0.021362	0.046692	-0.013428	0.063171	-0.094604	-0.17929	-0.041809	-0.11444	-0.07843	0.055847	-0.13825	-0.032501	-0.003357	0.001984	-0.001984	0.032043	0.006409	0.000305	-0.01236
25.139	-0.000305	0.11032	0.10529	-0.029297	0.008545	0.039673	0.20035	0.006866	-0.24017	0.032959	0.038757	-0.001984	0.15457	0.036011	-0.017242	-0.029449	0.089111	-0.10407	-0.069275	-0.015717	-0.19836	-0.011444	0.009766	-0.1091	-0.041809	-0.002594	0.30487	-0.006256	-0.045166	0.098877	-0.002747	-0.010986
25.14	0.004425	0.12192	0.088501	-0.006561	0.007324	0.00473	0.15671	0.00061	-0.12177	-0.007629	-0.15579	-0.000763	-0.49011	0.062561	0.023346	-0.007782	0.10468	-0.12909	0.096283	0.05188	-0.1088	-0.022278	0.036011	-0.070648	-0.043488	-0.005035	0.43533	-0.005341	-0.066833	0.068512	-0.007629	-0.002747
25.141	-0.001068	0.25848	0.17593	0.016327	0.006256	-0.12543	0.12604	0.002747	-0.042114	-0.019836	-0.046692	0.007935	-0.36331	0.1413	0.076447	-0.017242	0.045166	-0.14984	0.27329	-0.006561	0.063477	-0.027161	-0.007019	-0.045166	-0.03006	0.000916	0.54794	-0.000916	0.006409	-0.063782	-0.001831	-0.004883
25.142	0.004883	0.21042	0.067291	0.026703	0.004578	-0.047302	0.03952	0.016632	-0.031891	0.036774	-0.047607	-0.006714	0.93094	0.18478	0.066376	-0.02243	-0.010376	-0.14374	0.2652	-0.037231	0.12085	-0.04776	-0.041199	-0.026245	-0.019073	0.008545	0.1268	-0.005798	0.14481	-0.13168	-0.001984	0.000153
25.143	0.005951	0.14542	-0.15366	0.003815	0.00946	0.15564	-0.025635	0.02243	0.001984	0.11566	-0.067596	0.003357	0.48035	0.25757	0.093231	-0.015564	-0.030365	-0.15961	0.063782	0.11047	0.034637	-0.06012	-0.002289	-0.058441	-0.017395	-0.007019	-0.49286	-0.005341	0.21042	-0.074005	-0.003357	-0.001831
25.144	0.014343	0.086823	-0.075684	-0.009766	0.003357	0.29968	-0.040283	0.027008	0.041809	0.18234	-0.035858	0.004272	-0.6424	0.31311	0.00351	-0.030365	-0.04303	-0.19486	0.082092	0.14481	-0.01709	-0.056	-0.020447	-0.046082	-0.00351	-0.010376	-0.44006	-0.003357	0.25665	0.027161	-0.002899	-0.004883
25.145	0.014191	0.07431	-0.000153	0.003662	0.006561	0.2861	-0.02655	0.019379	-0.059662	0.24338	0.003204	0.002441	0.18555	0.1387	-0.22034	-0.006866	-0.062561	-0.16327	0.13458	0.044708	0.006409	-0.036926	-0.014801	-0.044098	0.003815	-0.001831	-0.031433	-0.005341	0.20996	0.000305	-0.004272	-0.000305
25.146	0.014496	0.016632	-0.10117	0.003204	0.000916	0.30533	-0.023804	0.017242	-0.17029	0.20233	-0.074158	-0.001526	0.5751	-0.14358	-0.3096	-0.020599	-0.046844	-0.12863	0.24704	0.007935	-0.013275	-0.005646	-0.001678	-0.00351	0.011749	0.006104	-0.24887	-0.006104	0.22354	0.010681	-0.009155	-0.001068
25.147	0.009308	-0.014343	-0.26871	0.003357	-0.004883	0.38803	-0.012054	0.048676	-0.23743	-0.024872	-0.02533	-0.009613	-0.13184	0.076141	0.035248	-0.022736	-0.036621	-0.15121	0.13779	0.027771	0.016174	0.018311	-0.012817	-0.066376	0.00824	0.002899	-0.14481	-0.005035	0.041199	-0.000153	-0.003204	-0.013428
25.148	0.003967	-0.075836	-0.25574	0.011902	0.001831	0.22507	-0.079498	0.050354	0.082855	-0.077362	-0.01297	0.002136	0.17395	-0.017853	0.028839	-0.011749	-0.002899	-0.13779	-0.03006	0.038605	-0.006714	0.000458	-0.011444	-0.0383	0.017395	0.00351	0.051575	-0.007629	-0.081635	-0.091553	-0.004272	-0.010529
25.149	0.007172	-0.1976	-0.24674	0.007019	0.013733	-0.15595	-0.12436	0.071259	0.23331	-0.050354	-0.028229	0.001221	-0.49454	-0.1149	0.029907	-0.02121	0.002289	-0.11215	-0.021057	0.039978	-0.019989	-0.004578	-0.053864	-0.003357	0.016479	-0.004578	0.10254	-0.003204	-0.10773	-0.037079	-0.006104	-0.013733
25.15	0.015564	-0.22812	-0.062714	-0.002289	0.017548	-0.035553	-0.21164	0.028992	0.2742	-0.088501	-0.028992	0.009003	-0.27481	-0.066528	0.073242	-0.009766	-0.00351	-0.10773	0.1532	0.047455	-0.046997	-0.006256	-0.034332	-0.031586	0.002899	-0.009613	0.062408	-0.007324	-0.11215	0.031128	0.001373	-0.014801
25.151	0.011292	-0.19012	-0.15823	0.014954	0.005951	-0.1683	-0.048523	-0.024109	0.29266	-0.0737	-0.019531	0.000305	0.24277	-0.10559	0.10147	-0.018921	-0.03891	-0.20371	0.079193	0.080566	-0.005035	-0.00061	-0.050354	-0.053711	0.011444	-0.015259	0.03006	-0.005493	-0.035553	0.06073	-0.00412	-0.019684
25.152	-0.000458	-0.095215	-0.032501	0.009155	0.013733	-0.33707	0.077515	-0.043335	0.34637	-0.045929	-0.013885	0.003815	0.022736	-0.15381	0.055847	-0.022278	-0.050354	-0.12665	0.20905	0.002441	0.00473	-0.014954	-0.034027	-0.027771	0.009613	-0.010071	0.053253	-0.002899	-0.002747	0.054321	-0.002899	-0.012817
25.153	0.00351	-0.1445	0.097198	0.023193	0.011597	-0.55283	0.031128	-0.059052	0.30334	0.027313	0.006256	0.003357	-0.13473	-0.3363	-0.027466	-0.035706	-0.058899	-0.061188	0.70755	-0.058746	-0.001831	0.000916	-0.036774	-0.10086	0.029449	-0.002899	0.022583	-0.002594	0.073242	0.1033	-0.001831	-0.012207
25.154	0.004425	-0.15182	0.12756	0.020752	0.016937	-0.43427	-0.028992	-0.041809	-0.052032	0.003052	0.035706	0.005341	0.005798	-0.3862	0.05722	-0.058289	-0.058594	-0.036926	0.27618	-0.025482	0.008698	0.006256	-0.058899	-0.006409	0.017395	-0.008698	-0.005188	-0.001831	-0.04425	0.072937	-0.005188	-0.016479
25.155	0.006104	-0.14008	-0.099487	-0.010071	0.00824	-0.16373	0.10696	-0.027924	-0.46845	-0.074463	0.033112	0.006409	-0.012512	-0.039063	0.09491	-0.016785	-0.044861	-0.012665	-0.3183	0.025024	0.027008	0.016632	-0.094299	-0.012665	0.020294	-0.011902	0.10971	0.00351	-0.27023	0.037842	-0.005493	-0.011597
25.156	0.001984	-0.1535	-0.071259	0.012512	0.006256	-0.11246	0.032501	-0.01709	-0.41046	-0.062408	0.05127	0.00061	-0.041962	0.04837	0.046692	-0.022125	0.019226	-0.027771	-0.3717	0.00412	0.070496	0.00473	-0.052948	0.00412	0.013428	-0.009766	0.13718	-0.001373	-0.41763	-0.015564	-0.005798	-0.007935
25.157	0.006714	-0.15854	0.026245	0.023804	0.007935	-0.032501	0.10681	-0.02243	-0.20889	-0.10284	0.009003	0.002441	-0.024261	0.2562	-0.079346	-0.033417	0.081635	-0.072327	-0.12924	-0.028687	0.051575	-0.015259	-0.063782	0.001831	0.021515	-0.002899	0.056915	-0.002747	-0.13229	-0.001373	-0.005798	-0.004578
25.158	0.000153	-0.20599	0.013885	0.007782	0.002747	-0.016937	0.14496	-0.002289	-0.15686	-0.068359	-0.009308	0.003357	0.012207	0.16785	-0.25726	-0.025787	0.11231	-0.09201	0.045776	0.004578	0.072327	-0.027466	-0.063934	-0.045929	0.025024	-0.009155	-0.00412	-0.002594	0.018158	-0.009155	-0.006866	-0.00061
25.159	-0.002594	-0.20981	-0.016022	0.010529	0.004272	0.040741	0.18921	0.017548	-0.15839	-0.042114	-0.0177	0.006104	0.039825	0.11841	-0.050354	-0.028839	0.072327	-0.064392	-0.044098	0.000305	-0.026855	0.022125	-0.055695	-0.072632	0.016785	-0.005798	-0.090027	-0.002136	0.21698	-0.001221	-0.006714	-0.008698
25.16	0.001984	-0.17746	0.058136	0.003204	0.007019	0.042419	0.037079	0.011139	-0.14389	-0.014648	-0.028992	0.001373	0.077667	0.013428	0.28214	-0.02182	0.028381	-0.057678	-0.01236	0.007019	-0.024109	0.030823	-0.01236	-0.05188	0.000458	-0.011902	-0.12131	-0.002289	0.36713	0.007782	-0.005798	-0.005188
25.161	0.007477	-0.14862	0.009308	0.005341	0.004425	0.052338	-0.063629	-0.003967	-0.02655	0.023956	-0.070343	0.003204	0.11246	-0.083313	0.26901	-0.028839	-0.041504	-0.038757	0.034332	-0.066681	-0.13306	0.1059	-0.054321	-0.061035	0.021362	-0.006409	-0.1091	-0.006561	0.29434	-0.027771	-0.006256	-0.003815
25.162	0.010071	-0.13641	0.023499	0.006561	0.009766	0.0354	-0.16861	-0.024261	0.095215	0.021973	-0.042572	0.013733	0.05127	0.015259	0.14923	-0.035248	-0.080566	-0.063934	0.016174	-0.14557	-0.097198	0.11276	-0.077209	0.019989	0.02182	-0.010681	-0.024567	-0.004425	0.17883	-0.048065	-0.005493	-0.003357
25.163	0.009308	-0.1503	0.024719	-0.013885	0.012054	0.017242	-0.21774	-0.018311	0.12955	0.001221	-0.010223	0.00473	-0.070953	0.22492	0.041809	-0.02594	-0.08606	-0.036316	0.013428	-0.12161	0.011292	0.071716	-0.040894	-0.019684	0.021515	-0.006561	0.159	-0.002747	-0.006866	-0.033569	-0.005341	-0.003052
25.164	0.012665	-0.12619	0.007019	-0.018921	0.014038	0.009003	-0.18936	-0.010529	0.12207	0.011902	0.018158	0.005341	-0.027008	0.30579	-0.054626	-0.02243	-0.085602	-0.038605	-0.060883	-0.094757	0.026703	0.015259	-0.063477	0.010681	0.045166	-0.007172	0.23621	-0.008392	-0.23529	-0.038147	-0.007172	-0.01297
25.165	0.003967	-0.14694	0.007019	-0.033417	0.009766	0.03479	-0.031891	0.008698	0.11383	0.028534	0.048981	0.000916	-0.14862	0.25879	-0.17395	-0.034027	-0.05661	-0.065765	-0.016785	-0.015259	-0.001373	-0.020905	-0.016022	-0.031891	0.013275	-0.007782	0.28503	-0.002747	-0.22095	-0.049744	-0.007019	-0.009155
25.166	0.005951	-0.15396	0.024414	-0.042419	0.00885	0.075073	0.093842	0.007172	0.049286	0.078125	0.022278	0.007782	-0.09201	0.24048	-0.19867	-0.033722	-0.033264	-0.019836	-0.00946	0.048523	-0.019989	-0.006714	-0.018921	-0.019989	0.006104	-0.001678	0.25513	-0.003052	-0.014496	-0.01297	-0.008698	0.000763
25.167	-0.006256	-0.16434	0.007477	-0.025635	0.00061	0.049133	0.082092	0.009155	-0.043793	0.14099	0.00885	-0.000458	-0.027771	-0.067749	-0.13473	-0.062714	-0.019073	-0.06073	-0.10391	0.080566	-0.014496	-0.012207	0.021973	-0.059357	-0.003662	-0.000916	0.03006	-0.001526	-0.096741	-0.06958	-0.002441	-0.003052
